HIERARCHY
ROOT joint_Root
{
	OFFSET 0.0 0.0 0.0
	CHANNELS 6 Xposition Yposition Zposition Zrotation Xrotation Yrotation 
	JOINT Hips
	{
		OFFSET 4.5925 91.4895 -427.239
		CHANNELS 6 Xposition Yposition Zposition Zrotation Xrotation Yrotation 
		JOINT Spine
		{
			OFFSET 15.7357 0.0 0.0
			CHANNELS 6 Xposition Yposition Zposition Zrotation Xrotation Yrotation 
			JOINT Chest
			{
				OFFSET 8.98455 -0.406207 0.0
				CHANNELS 6 Xposition Yposition Zposition Zrotation Xrotation Yrotation 
				JOINT Neck
				{
					OFFSET 16.3773 0.0 0.0
					CHANNELS 6 Xposition Yposition Zposition Zrotation Xrotation Yrotation 
					JOINT Head
					{
						OFFSET 6.45672 0.0 0.0
						CHANNELS 6 Xposition Yposition Zposition Zrotation Xrotation Yrotation 
						End Site
						{
							OFFSET 0.0 0.0 0.0
						}
					}
				}
				JOINT Shoulder_L
				{
					OFFSET 12.9942 -0.242716 4.98039
					CHANNELS 6 Xposition Yposition Zposition Zrotation Xrotation Yrotation 
					JOINT UpperArm_L
					{
						OFFSET 5.34809 0.0 0.0
						CHANNELS 6 Xposition Yposition Zposition Zrotation Xrotation Yrotation 
						JOINT LowerArm_L
						{
							OFFSET 24.3286 1.87007e-05 0.0
							CHANNELS 6 Xposition Yposition Zposition Zrotation Xrotation Yrotation 
							JOINT Hand_L
							{
								OFFSET 22.2916 0.0 0.0
								CHANNELS 6 Xposition Yposition Zposition Zrotation Xrotation Yrotation 
								End Site
								{
									OFFSET 0.0 0.0 0.0
								}
							}
						}
					}
				}
				JOINT Shoulder_R
				{
					OFFSET 12.9945 -0.242716 -4.98039
					CHANNELS 6 Xposition Yposition Zposition Zrotation Xrotation Yrotation 
					JOINT UpperArm_R
					{
						OFFSET -5.34813 0.0 0.0
						CHANNELS 6 Xposition Yposition Zposition Zrotation Xrotation Yrotation 
						JOINT LowerArm_R
						{
							OFFSET -24.3289 0.000322201 0.0
							CHANNELS 6 Xposition Yposition Zposition Zrotation Xrotation Yrotation 
							JOINT Hand_R
							{
								OFFSET -22.2915 -0.000108084 0.0
								CHANNELS 6 Xposition Yposition Zposition Zrotation Xrotation Yrotation 
								End Site
								{
									OFFSET 0.0 0.0 0.0
								}
							}
						}
					}
				}
			}
		}
		JOINT UpperLeg_L
		{
			OFFSET -2.19248 -6.46944 0.0
			CHANNELS 6 Xposition Yposition Zposition Zrotation Xrotation Yrotation 
			JOINT LowerLeg_L
			{
				OFFSET 39.0811 0.0 -1.23785e-05
				CHANNELS 6 Xposition Yposition Zposition Zrotation Xrotation Yrotation 
				JOINT Foot_L
				{
					OFFSET 40.9854 0.0 -1.26872e-05
					CHANNELS 6 Xposition Yposition Zposition Zrotation Xrotation Yrotation 
					JOINT Toes_L
					{
						OFFSET 11.7543 0.0 0.0
						CHANNELS 6 Xposition Yposition Zposition Zrotation Xrotation Yrotation 
						End Site
						{
							OFFSET 0.0 0.0 0.0
						}
					}
				}
			}
		}
		JOINT UpperLeg_R
		{
			OFFSET -2.19251 6.46944 0.0
			CHANNELS 6 Xposition Yposition Zposition Zrotation Xrotation Yrotation 
			JOINT LowerLeg_R
			{
				OFFSET -39.0811 -0.00228153 -0.0401928
				CHANNELS 6 Xposition Yposition Zposition Zrotation Xrotation Yrotation 
				JOINT Foot_R
				{
					OFFSET -40.9854 0.0 0.0
					CHANNELS 6 Xposition Yposition Zposition Zrotation Xrotation Yrotation 
					JOINT Toes_R
					{
						OFFSET -11.7543 0.0 0.0
						CHANNELS 6 Xposition Yposition Zposition Zrotation Xrotation Yrotation 
						End Site
						{
							OFFSET 0.0 0.0 0.0
						}
					}
				}
			}
		}
	}
}
MOTION
Frames:	5
Frame Time:	0.0333333
0.000000 0.000000 0.000000 0.000000 0.000000 -0.000000 1.840330 93.677600 -77.667800 92.123500 12.818600 -11.463800 15.735700 0.000005 -0.000001 35.143800 80.846800 -34.040000 8.984550 -0.406207 -0.000000 3.009660 -15.000900 2.611350 16.377300 -0.000001 -0.000001 -2.804400 -4.044270 1.118160 6.456720 -0.000001 -0.000000 -8.186150 2.139000 1.934350 12.994200 -0.242716 4.980390 -89.439100 -2.078260 -74.892600 5.348090 -0.000007 -0.000001 -58.973300 19.460200 -28.470600 24.328600 0.000019 0.000005 12.090000 1.228390 -84.278200 22.291600 -0.000001 0.000005 3.404680 5.435880 -4.140590 12.994500 -0.242716 -4.980390 89.193800 2.450390 -71.782000 -5.348130 -0.000001 -0.000004 -70.436100 19.482100 32.940800 -24.328900 0.000322 -0.000009 -3.425100 -3.786630 -42.183600 -22.291500 -0.000108 -0.000004 5.271900 5.530180 -7.803500 -2.192480 -6.469440 -0.000000 -170.863000 -4.720320 12.470800 39.081100 -0.000007 -0.000012 0.167146 -0.172010 44.177900 40.985400 -0.000006 -0.000013 -0.813551 -2.241850 -33.778700 11.754300 -0.000000 0.000003 -0.005151 -0.062923 -19.137100 -2.192510 6.469440 -0.000001 -176.262000 13.766600 137.583000 -39.081100 -0.002282 -0.040193 -0.084756 0.177835 26.345100 -40.985400 0.000008 0.000006 -2.318510 12.484200 -72.136800 -11.754300 -0.000006 -0.000006 -0.021730 -0.176691 -23.795400
0.000000 0.000000 0.000000 0.000000 0.000000 -0.000000 2.323820 92.240400 -65.050700 93.587400 11.304300 -9.096390 15.735700 0.000005 -0.000001 41.855000 80.745800 -41.244400 8.984550 -0.406207 -0.000000 4.768950 -13.776500 1.800720 16.377300 -0.000001 -0.000001 -2.876060 -4.351960 0.737621 6.456720 -0.000001 -0.000000 -9.333780 1.579450 1.825920 12.994200 -0.242716 4.980390 -89.529100 -1.768560 -75.087200 5.348090 -0.000007 -0.000001 -60.815600 23.059300 -23.830800 24.328600 0.000019 0.000005 10.046800 2.380540 -76.801900 22.291600 -0.000001 0.000005 5.103120 5.430300 -3.949260 12.994500 -0.242716 -4.980390 88.681600 4.160360 -72.396500 -5.348130 -0.000001 -0.000004 -69.898600 16.444000 28.307300 -24.328900 0.000322 -0.000009 -5.397330 -6.162380 -41.346800 -22.291500 -0.000108 -0.000004 6.439130 5.542260 -8.327290 -2.192480 -6.469440 -0.000000 -174.921000 -1.932990 12.294500 39.081100 -0.000007 -0.000012 0.249840 -0.135734 61.484800 40.985400 -0.000006 -0.000013 0.670315 -5.145540 -32.925400 11.754300 -0.000000 0.000003 -0.004054 -0.052008 -18.692400 -2.192510 6.469440 -0.000001 -175.121000 18.884900 141.109000 -39.081100 -0.002282 -0.040193 -0.130665 0.321745 22.608000 -40.985400 0.000008 0.000006 -5.530350 15.602500 -74.483100 -11.754300 -0.000006 -0.000006 -0.020856 -0.171987 -23.601500
0.000000 0.000000 0.000000 0.000000 0.000000 -0.000000 2.633180 89.695400 -52.845900 92.784400 8.483610 -7.038960 15.735700 0.000005 -0.000001 51.055900 81.058200 -50.179400 8.984550 -0.406207 -0.000000 6.323750 -11.220100 2.377190 16.377300 -0.000001 -0.000001 -2.608330 -3.842240 0.124696 6.456720 -0.000001 -0.000000 -9.957330 0.940010 1.473470 12.994200 -0.242716 4.980390 -89.802500 -0.735104 -74.961400 5.348090 -0.000007 -0.000001 -61.695000 27.047600 -18.762500 24.328600 0.000019 0.000005 11.948300 5.313260 -66.398000 22.291600 -0.000001 0.000005 3.417620 5.437800 -4.214670 12.994500 -0.242716 -4.980390 88.169900 6.379450 -73.948400 -5.348130 -0.000001 -0.000004 -67.794100 14.746200 21.246600 -24.328900 0.000322 -0.000009 -6.134320 -6.681430 -42.721000 -22.291500 -0.000108 -0.000004 8.938260 5.567220 -9.528060 -2.192480 -6.469440 -0.000000 -175.453000 -3.463160 6.872010 39.081100 -0.000007 -0.000012 0.483610 -0.056706 83.311400 40.985400 -0.000006 -0.000013 -2.451960 -6.382090 -24.468700 11.754300 -0.000000 0.000003 -0.003559 -0.046784 -18.479600 -2.192510 6.469440 -0.000001 -173.081000 18.676600 142.683000 -39.081100 -0.002282 -0.040193 0.101671 -0.168990 30.203900 -40.985400 0.000008 0.000006 2.191900 6.521310 -77.798600 -11.754300 -0.000006 -0.000006 -0.026897 -0.202872 -24.877300
0.000000 0.000000 0.000000 0.000000 0.000000 -0.000000 2.384730 86.370300 -42.426600 89.479500 4.695910 -7.867640 15.735700 0.000005 -0.000001 59.995000 82.079000 -57.980300 8.984550 -0.406207 -0.000000 6.141570 -7.929390 4.455990 16.377300 -0.000001 -0.000001 -2.563120 -2.795360 -0.266393 6.456720 -0.000001 -0.000000 -10.259000 0.807760 0.693931 12.994200 -0.242716 4.980390 -90.345300 1.258750 -74.661100 5.348090 -0.000007 -0.000001 -61.049900 31.623900 -12.789200 24.328600 0.000019 0.000005 13.392500 10.137200 -53.556200 22.291600 -0.000001 0.000005 0.897864 5.436420 -4.160830 12.994500 -0.242716 -4.980390 87.639400 9.386580 -75.812500 -5.348130 -0.000001 -0.000004 -62.390200 13.952000 10.180100 -24.328900 0.000322 -0.000009 -7.286630 -7.187630 -45.615400 -22.291500 -0.000108 -0.000004 11.117700 5.580490 -10.235100 -2.192480 -6.469440 -0.000000 -173.277000 -7.747980 -6.657400 39.081100 -0.000007 -0.000012 0.734472 0.227279 107.193000 40.985400 -0.000006 -0.000013 -1.803710 -6.435240 -14.717200 11.754300 -0.000000 0.000003 -0.003499 -0.046134 -18.453200 -2.192510 6.469440 -0.000001 -169.150000 14.890300 137.474000 -39.081100 -0.002282 -0.040193 0.337485 -0.345896 44.016800 -40.985400 0.000008 0.000006 9.641160 4.278680 -62.669900 -11.754300 -0.000006 -0.000006 -0.017666 -0.154000 -22.860900
0.000000 0.000000 0.000000 0.000000 0.000000 -0.000000 2.196870 83.117600 -31.851000 87.579800 -0.491946 -6.642110 15.735700 0.000005 -0.000001 73.849800 82.148500 -71.412200 8.984550 -0.406207 -0.000000 7.431310 -4.358630 5.155210 16.377300 -0.000001 -0.000001 -3.496630 -1.723940 0.217261 6.456720 -0.000001 -0.000000 -10.025700 1.841070 -1.214990 12.994200 -0.242716 4.980390 -90.578200 2.071780 -74.401800 5.348090 -0.000007 -0.000001 -63.370600 34.738800 -4.763190 24.328600 0.000019 0.000005 13.640700 17.516800 -38.908100 22.291600 -0.000001 0.000005 -1.047120 5.449220 -4.614700 12.994500 -0.242716 -4.980390 87.590500 10.730600 -77.265600 -5.348130 -0.000001 -0.000004 -57.616000 11.435900 -5.673940 -24.328900 0.000322 -0.000009 -8.079930 -7.209430 -48.520700 -22.291500 -0.000108 -0.000004 14.482100 5.591310 -10.834600 -2.192480 -6.469440 -0.000000 -173.842000 -12.177500 -21.404400 39.081100 -0.000007 -0.000012 0.544777 0.405000 126.625000 40.985400 -0.000006 -0.000013 -0.546414 -2.938360 -8.342540 11.754300 -0.000000 0.000003 -0.003584 -0.047049 -18.490400 -2.192510 6.469440 -0.000001 -170.433000 3.860650 140.232000 -39.081100 -0.002282 -0.040193 -0.531339 0.331826 58.170700 -40.985400 0.000008 0.000006 9.148380 -3.546940 -75.593600 -11.754300 -0.000006 -0.000006 -0.006463 -0.074983 -19.625200
